# xmcd CD database file
#
# Track frame offsets:
#	150
#	15380
#	32635
#	49217
#	58327
#	68015
#	79057
#	90700
#	104997
#	117697
#	134642
#	145297
#	156142
#	167955
#	178352
#	194617
#	213152
#	225532
#	240040
#	251222
#	273165
#
# Disc length: 4440 seconds
#
# Revision: 6
# Processed by: cddbd v1.5.2PL0 Copyright (c) Steve Scherf et al.
# Submitted via: CDex 1.70beta2
#
DISCID=3a115615
DTITLE=Charles Aznavour - Platinum Collection CD1
DYEAR=2004
DGENRE=Pop
TTITLE0=Je m'voyais déjà
TTITLE1=Les deux guitares
TTITLE2=Tu t'laisses aller
TTITLE3=Rendez-vous à Brasilia
TTITLE4=Quand tu m'embrasses
TTITLE5=Commes des étrangers
TTITLE6=L'amour et la guerre
TTITLE7=Il faut savoir
TTITLE8=La marche des anges
TTITLE9=L'amour c'est comme un jour
TTITLE10=Les comédiens
TTITLE11=Trousse-chemise
TTITLE12=Esperanza
TTITLE13=For me, For me, Formidable
TTITLE14=Qui ?
TTITLE15=Bon anniversaire
TTITLE16=Les deux pigeons
TTITLE17=Viens pleurer au creux de mon épaule
TTITLE18=Trop tard
TTITLE19=Le palais de nos chimères
TTITLE20=DATA
EXTD=YEAR: 2004
EXTT0=
EXTT1=
EXTT2=
EXTT3=
EXTT4=
EXTT5=
EXTT6=
EXTT7=
EXTT8=
EXTT9=
EXTT10=
EXTT11=
EXTT12=
EXTT13=
EXTT14=
EXTT15=
EXTT16=
EXTT17=
EXTT18=
EXTT19=
EXTT20=
PLAYORDER=
